<svg xmlns="http://www.w3.org/2000/svg" version="1.1" xmlns:xlink="http://www.w3.org/1999/xlink" xmlns:svgjs="http://svgjs.dev/svgjs" width="1500" height="1500" viewBox="0 0 1500 1500"><g transform="matrix(1,0,0,1,-0.323615160350073,-0.3236151603499593)"><svg viewBox="0 0 343 343" data-background-color="#ffffff" preserveAspectRatio="xMidYMid meet" height="1500" width="1500" xmlns="http://www.w3.org/2000/svg" xmlns:xlink="http://www.w3.org/1999/xlink"><g id="tight-bounds" transform="matrix(1,0,0,1,0.0740000000000407,0.07400000000001228)"><svg viewBox="0 0 342.85155851775386 342.85155851775386" height="342.85155851775386" width="342.85155851775386"><g><svg></svg></g><g><svg viewBox="0 0 342.85155851775386 342.85155851775386" height="342.85155851775386" width="342.85155851775386"><g><path d="M0 171.426c0-94.676 76.75-171.426 171.426-171.426 94.676 0 171.426 76.75 171.426 171.426 0 94.676-76.75 171.426-171.426 171.426-94.676 0-171.426-76.75-171.426-171.426zM171.426 336.317c91.067 0 164.891-73.824 164.891-164.891 0-91.067-73.824-164.891-164.891-164.891-91.067 0-164.891 73.824-164.891 164.891 0 91.067 73.824 164.891 164.891 164.891z" data-fill-palette-color="tertiary" fill="#001d25" stroke="transparent"></path><ellipse rx="164.56874808852186" ry="164.56874808852186" cx="171.42577925887693" cy="171.42577925887693" fill="#001d25" stroke="transparent" stroke-width="0" fill-opacity="1" data-fill-palette-color="tertiary"></ellipse></g><g transform="matrix(1,0,0,1,64.84655864529837,76.56505437611571)"><svg viewBox="0 0 213.1584412271571 189.72144976552244" height="189.72144976552244" width="213.1584412271571"><g><svg viewBox="0 0 213.1584412271571 189.72144976552244" height="189.72144976552244" width="213.1584412271571"><g><svg viewBox="0 0 213.1584412271571 189.72144976552244" height="189.72144976552244" width="213.1584412271571"><g transform="matrix(1,0,0,1,0,117.25546720217348)"><svg viewBox="0 0 213.1584412271571 72.46598256334897" height="72.46598256334897" width="213.1584412271571"><g id="textblocktransform"><svg viewBox="0 0 213.1584412271571 72.46598256334897" height="72.46598256334897" width="213.1584412271571" id="textblock"><g><svg viewBox="0 0 213.1584412271571 72.46598256334897" height="72.46598256334897" width="213.1584412271571"><g transform="matrix(1,0,0,1,0,0)"><svg width="213.1584412271571" viewBox="1.75 -36.15 108.09 36.75" height="72.46598256334897" data-palette-color="#fcf2e6"><path d="M13.35 0.6Q7.35 0.6 4.55-2.73 1.75-6.05 1.75-13.15L1.75-13.15Q1.75-20.2 4.58-23.55 7.4-26.9 13.35-26.9L13.35-26.9Q18.75-26.9 21.25-24.3 23.75-21.7 23.75-16.55L23.75-16.55 19.25-16.55Q19.25-20.1 17.98-21.68 16.7-23.25 13.35-23.25L13.35-23.25Q9.7-23.25 8-20.88 6.3-18.5 6.3-13.15L6.3-13.15 6.3-12.95Q6.3-7.65 7.95-5.35 9.6-3.05 13.35-3.05L13.35-3.05Q16.65-3.05 18.07-4.73 19.5-6.4 19.5-9.75L19.5-9.75 23.75-9.75Q23.75-5.25 21.2-2.33 18.65 0.6 13.35 0.6L13.35 0.6ZM28.35 0L28.35-36.15 32.75-36.15 32.75 0 28.35 0ZM39.45-31.4L39.45-36.15 43.8-36.15 43.8-31.4 39.45-31.4ZM39.45 0L39.45-26.3 43.84-26.3 43.84 0 39.45 0ZM50.54 0L50.54-26.3 53.89-26.3 54.39-22.75 54.74-22.75Q57.64-26.9 63.59-26.9L63.59-26.9Q67.54-26.9 69.67-24.78 71.79-22.65 71.79-17.95L71.79-17.95 71.79 0 67.39 0 67.39-17.65Q67.39-20.8 65.99-22.03 64.59-23.25 61.94-23.25L61.94-23.25Q60.04-23.25 58.44-22.33 56.84-21.4 55.89-19.65 54.94-17.9 54.94-15.55L54.94-15.55 54.94 0 50.54 0ZM78.34-31.4L78.34-36.15 82.69-36.15 82.69-31.4 78.34-31.4ZM78.34 0L78.34-26.3 82.74-26.3 82.74 0 78.34 0ZM99.44 0.6Q93.44 0.6 90.64-2.73 87.84-6.05 87.84-13.15L87.84-13.15Q87.84-20.2 90.66-23.55 93.49-26.9 99.44-26.9L99.44-26.9Q104.84-26.9 107.34-24.3 109.84-21.7 109.84-16.55L109.84-16.55 105.34-16.55Q105.34-20.1 104.06-21.68 102.79-23.25 99.44-23.25L99.44-23.25Q95.79-23.25 94.09-20.88 92.39-18.5 92.39-13.15L92.39-13.15 92.39-12.95Q92.39-7.65 94.04-5.35 95.69-3.05 99.44-3.05L99.44-3.05Q102.74-3.05 104.16-4.73 105.59-6.4 105.59-9.75L105.59-9.75 109.84-9.75Q109.84-5.25 107.29-2.33 104.74 0.6 99.44 0.6L99.44 0.6Z" opacity="1" transform="matrix(1,0,0,1,0,0)" fill="#fcf2e6" class="wordmark-text-0" data-fill-palette-color="quaternary" id="text-0"></path></svg></g></svg></g></svg></g></svg></g><g transform="matrix(1,0,0,1,47.48568737915566,0)"><svg viewBox="0 0 118.1870664688458 100.14798790254831" height="100.14798790254831" width="118.1870664688458"><g><svg xmlns="http://www.w3.org/2000/svg" data-name="Layer 1" viewBox="2.5 9.799999999999999 95 80.50000000000001" x="0" y="0" height="100.14798790254831" width="118.1870664688458" class="icon-icon-0" data-fill-palette-color="quaternary" id="icon-0"><path d="M90.2 80.7V14.2a4.4 4.4 0 0 0-4.4-4.4H14.2a4.4 4.4 0 0 0-4.4 4.4V80.7a2.2 2.2 0 0 1-2.2 2.2H6.2a3.7 3.7 0 0 0-3.7 3.7h0a3.7 3.7 0 0 0 3.7 3.7H93.8a3.7 3.7 0 0 0 3.7-3.7h0a3.7 3.7 0 0 0-3.7-3.7H92.4A2.2 2.2 0 0 1 90.2 80.7ZM39 80.7V63.2A2.2 2.2 0 0 1 41.2 61H58.8A2.2 2.2 0 0 1 61 63.2V80.7a2.2 2.2 0 0 1-2.2 2.2H41.2A2.2 2.2 0 0 1 39 80.7Zm29.2 0V58a4.4 4.4 0 0 0-4.4-4.4H36.1A4.4 4.4 0 0 0 31.7 58V80.7a2.2 2.2 0 0 1-2.2 2.2H19.3a2.2 2.2 0 0 1-2.2-2.2V19.3a2.2 2.2 0 0 1 2.2-2.2H80.7a2.2 2.2 0 0 1 2.2 2.2V80.7a2.2 2.2 0 0 1-2.2 2.2H70.5A2.2 2.2 0 0 1 68.3 80.7Z" fill="#fcf2e6" data-fill-palette-color="quaternary"></path><path d="M58.8 31.7H55.1a1.5 1.5 0 0 1-1.5-1.5V26.6a2.2 2.2 0 0 0-2.2-2.2H48.5a2.2 2.2 0 0 0-2.2 2.2v3.7a1.5 1.5 0 0 1-1.5 1.5H41.2A2.2 2.2 0 0 0 39 33.9v2.9A2.2 2.2 0 0 0 41.2 39h3.7a1.5 1.5 0 0 1 1.5 1.5v3.7a2.2 2.2 0 0 0 2.2 2.2h2.9a2.2 2.2 0 0 0 2.2-2.2V40.5A1.5 1.5 0 0 1 55.1 39h3.7A2.2 2.2 0 0 0 61 36.8V33.9A2.2 2.2 0 0 0 58.8 31.7Z" fill="#fcf2e6" data-fill-palette-color="quaternary"></path></svg></g></svg></g><g></g></svg></g></svg></g></svg></g></svg></g><defs></defs></svg><rect width="342.85155851775386" height="342.85155851775386" fill="none" stroke="none" visibility="hidden"></rect></g></svg></g></svg>